HIERARCHY
ROOT Hips
{
	OFFSET -0.001795 -0.223333 0.028219
	CHANNELS 6 Xposition Yposition Zposition Zrotation Yrotation Xrotation 
	JOINT LeftUpLeg
	{
		OFFSET 0.069520 -0.091406 -0.006815
		CHANNELS 3 Zrotation Yrotation Xrotation
		JOINT LeftLeg
		{
			OFFSET 0.034277 -0.375199 -0.004496
			CHANNELS 3 Zrotation Yrotation Xrotation
			JOINT LeftFoot
			{
				OFFSET -0.013596 -0.397961 -0.043693
				CHANNELS 3 Zrotation Yrotation Xrotation
				JOINT LeftToe
				{
					OFFSET 0.026358 -0.055791 0.119288
					CHANNELS 3 Zrotation Yrotation Xrotation
					End Site
					{
						OFFSET 0.000000 0.000000 0.000000
					}
				}
			}
		}
	}
	JOINT RightUpLeg
	{
		OFFSET -0.067670 -0.090522 -0.004320
		CHANNELS 3 Zrotation Yrotation Xrotation
		JOINT RightLeg
		{
			OFFSET -0.038290 -0.382569 -0.008850
			CHANNELS 3 Zrotation Yrotation Xrotation
			JOINT RightFoot
			{
				OFFSET 0.015774 -0.398415 -0.042312
				CHANNELS 3 Zrotation Yrotation Xrotation
				JOINT RightToe
				{
					OFFSET -0.025372 -0.048144 0.123348
					CHANNELS 3 Zrotation Yrotation Xrotation
					End Site
					{
						OFFSET 0.000000 0.000000 0.000000
					}
				}
			}
		}
	}
	JOINT Spine
	{
		OFFSET -0.002533 0.108963 -0.026696
		CHANNELS 3 Zrotation Yrotation Xrotation
		JOINT Spine1
		{
			OFFSET 0.005487 0.135180 0.001092
			CHANNELS 3 Zrotation Yrotation Xrotation
			JOINT Spine2
			{
				OFFSET 0.001457 0.052922 0.025425
				CHANNELS 3 Zrotation Yrotation Xrotation
				JOINT Neck
				{
					OFFSET -0.002778 0.213870 -0.042857
					CHANNELS 3 Zrotation Yrotation Xrotation
					JOINT Head
					{
						OFFSET 0.005152 0.064970 0.051349
						CHANNELS 3 Zrotation Yrotation Xrotation
						End Site
						{
							OFFSET 0.000000 0.000000 0.000000
						}
					}
				}
				JOINT LeftShoulder
				{
					OFFSET 0.078845 0.121749 -0.034090
					CHANNELS 3 Zrotation Yrotation Xrotation
					JOINT LeftArm
					{
						OFFSET 0.090977 0.030469 -0.008868
						CHANNELS 3 Zrotation Yrotation Xrotation
						JOINT LeftForeArm
						{
							OFFSET 0.259612 -0.012772 -0.027456
							CHANNELS 3 Zrotation Yrotation Xrotation
							JOINT LeftHand
							{
								OFFSET 0.249234 0.008986 -0.001171
								CHANNELS 3 Zrotation Yrotation Xrotation
								End Site
								{
									OFFSET 0.000000 0.000000 0.000000
								}
							}
						}
					}
				}
				JOINT RightShoulder
				{
					OFFSET -0.081759 0.118833 -0.038615
					CHANNELS 3 Zrotation Yrotation Xrotation
					JOINT RightArm
					{
						OFFSET -0.096012 0.032551 -0.009143
						CHANNELS 3 Zrotation Yrotation Xrotation
						JOINT RightForeArm
						{
							OFFSET -0.253742 -0.013329 -0.021401
							CHANNELS 3 Zrotation Yrotation Xrotation
							JOINT RightHand
							{
								OFFSET -0.255298 0.007772 -0.005559
								CHANNELS 3 Zrotation Yrotation Xrotation
								End Site
								{
									OFFSET 0.000000 0.000000 0.000000
								}
							}
						}
					}
				}
			}
		}
	}
}
MOTION
Frames: 10
Frame Time: 0.050000
-0.192098 0.841032 3.058249 -2.704223 -3.660073 -0.840340 3.722921 -0.295759 -4.895935 7.900598 -10.076380 82.352492 -1.208424 -8.786163 -9.611115 0.000000 0.000000 0.000000 1.914120 5.276414 -39.918660 7.915152 -1.715265 50.321649 -6.615005 -14.565549 -11.619863 0.000000 0.000000 0.000000 4.166937 -1.214358 16.403029 2.418645 -0.973823 -4.510714 3.635681 -10.489730 7.167790 -14.197257 10.822635 -5.600164 0.000000 0.000000 0.000000 -14.710356 10.490688 -4.548198 -54.351322 -7.622065 -3.123025 -40.829765 -63.046089 33.380202 0.000000 0.000000 0.000000 4.598944 -2.477886 -2.030345 52.016924 -4.434323 -7.798323 26.860445 48.634544 10.783118 0.000000 0.000000 0.000000 
-0.202706 0.793448 3.142129 -3.632825 -5.040741 -4.495575 2.135736 -0.907332 -13.441177 8.086286 -11.923235 94.559738 -1.649196 -9.464831 -8.812217 0.000000 0.000000 0.000000 6.134686 6.968499 -39.828733 8.519776 -1.993039 66.022759 -8.507999 -20.757204 -15.364931 0.000000 0.000000 0.000000 4.787252 -1.534376 21.256079 1.510090 -0.566626 -5.870460 3.791234 -9.114962 8.229953 -13.691305 9.500043 -11.193424 0.000000 0.000000 0.000000 -16.303778 8.018248 -3.361521 -57.145010 -12.589502 -1.088389 -20.894963 -53.581848 16.083747 0.000000 0.000000 0.000000 8.961113 -0.148692 -2.173207 52.627931 1.562882 -5.044109 18.568685 44.360264 6.750858 0.000000 0.000000 0.000000 
-0.208814 0.779070 3.207204 -3.527602 -5.418240 -5.862667 1.393702 -1.880223 -27.332214 7.430572 -12.118692 99.558344 -2.758376 -9.459257 -5.071876 0.000000 0.000000 0.000000 8.850507 7.378291 -37.046643 8.253451 -1.688849 73.099830 -9.489073 -24.600541 -16.922910 0.000000 0.000000 0.000000 4.471469 -1.675864 25.168024 0.128661 0.049355 -7.460846 4.750322 -8.327847 11.706414 -11.669982 7.744021 -14.269807 0.000000 0.000000 0.000000 -13.685394 5.567059 -2.045799 -60.511433 -14.803943 0.141240 -11.883127 -45.427744 9.158737 0.000000 0.000000 0.000000 8.471949 0.549969 -1.649198 55.022903 5.915678 -3.846885 14.247582 41.898531 5.083073 0.000000 0.000000 0.000000 
-0.211157 0.789887 3.264663 -2.219315 -6.748271 -4.770614 0.917926 -2.601863 -41.679768 5.693090 -7.973791 94.538934 -2.107343 -9.085650 -6.817814 0.000000 0.000000 0.000000 9.494076 6.929481 -33.774169 6.478002 0.783669 72.780740 -9.408159 -24.089616 -16.373396 0.000000 0.000000 0.000000 1.406122 -0.974340 26.697249 0.958369 -0.335497 -6.815521 5.668903 -5.840977 11.392236 -9.415054 6.194969 -15.523021 0.000000 0.000000 0.000000 -14.399667 5.720174 -2.388922 -59.115288 -12.147819 -1.413771 -13.686653 -38.079398 7.734012 0.000000 0.000000 0.000000 9.032296 1.888017 -1.048988 54.704454 5.800353 -3.761221 12.542172 39.265405 4.475877 0.000000 0.000000 0.000000 
-0.210725 0.807521 3.322850 0.083545 -7.649723 -3.458307 0.455921 -2.983539 -52.651522 3.312127 -3.844280 83.347768 -2.402963 -7.600123 -4.013444 0.000000 0.000000 0.000000 8.436989 5.644916 -29.446702 4.110295 3.411148 69.944582 -9.385411 -23.705334 -16.401768 0.000000 0.000000 0.000000 -1.392976 -0.219952 27.781697 0.394998 -0.107634 -7.305044 6.533955 -3.298174 11.278359 -8.964254 6.092461 -15.204130 0.000000 0.000000 0.000000 -14.671279 7.426998 -3.575856 -57.309883 -4.754406 -5.086566 -14.057732 -34.070797 6.705208 0.000000 0.000000 0.000000 7.520071 -0.528024 -1.535184 55.687098 0.958056 -6.113138 14.489203 37.621771 5.167994 0.000000 0.000000 0.000000 
-0.208130 0.825270 3.384116 1.274080 -8.764576 -1.776907 2.186326 -1.778890 -56.321096 1.445045 -1.293212 66.371427 -2.837346 -5.557432 0.670882 0.000000 0.000000 0.000000 6.560047 4.555995 -26.446593 3.421160 4.524724 68.449772 -8.444340 -20.047987 -14.191487 0.000000 0.000000 0.000000 -2.853843 0.211659 26.213039 -0.179733 0.099649 -6.210029 6.022179 -0.842054 11.203190 -7.311292 5.275498 -13.148672 0.000000 0.000000 0.000000 -11.578319 10.625135 -5.141791 -56.711784 4.526393 -9.127014 -16.892572 -31.229459 6.737829 0.000000 0.000000 0.000000 7.379208 -4.243742 -2.830803 53.845514 -6.387998 -8.986705 18.575036 34.669084 6.150440 0.000000 0.000000 0.000000 
-0.203873 0.836378 3.449478 2.183510 -9.546376 -0.556416 3.878990 -0.608967 -56.108933 -0.158171 -0.106290 48.820364 -2.787464 -4.065256 3.361999 0.000000 0.000000 0.000000 3.989322 3.021803 -21.033566 2.989790 4.916507 65.055994 -7.213603 -15.193779 -14.639528 0.000000 0.000000 0.000000 -2.465174 0.166459 25.458498 -0.995981 0.430754 -5.964496 5.696599 0.355553 12.006143 -8.059208 5.892910 -12.754232 0.000000 0.000000 0.000000 -9.798199 15.060782 -7.057304 -52.650546 14.997307 -12.696394 -21.144170 -31.213501 7.903203 0.000000 0.000000 0.000000 3.777705 -8.046617 -3.505322 55.343742 -12.125764 -12.023258 20.576741 32.394567 6.358557 0.000000 0.000000 0.000000 
-0.196837 0.841002 3.519109 1.865265 -10.660992 0.142219 6.497345 1.092129 -54.936182 -1.881338 0.675821 37.290526 -2.326554 -2.394906 5.281533 0.000000 0.000000 0.000000 1.447242 1.848187 -15.657328 2.434110 5.420421 62.249753 -4.957052 -7.358746 -12.836607 0.000000 0.000000 0.000000 -1.471281 -0.054078 23.283738 -2.254550 0.954663 -5.151047 6.884989 2.559031 13.524133 -8.233245 6.172680 -12.969734 0.000000 0.000000 0.000000 -7.911692 17.762427 -8.022705 -47.274144 21.620428 -13.699689 -24.539960 -27.020916 7.492564 0.000000 0.000000 0.000000 -0.573056 -11.969256 -3.941542 55.291587 -18.327309 -14.849392 22.959901 31.394127 6.957990 0.000000 0.000000 0.000000 
-0.186866 0.837591 3.592256 2.071103 -11.735413 1.376310 6.690136 1.375702 -53.272970 -0.980291 0.168014 28.912145 -2.380735 -2.005031 6.756141 0.000000 0.000000 0.000000 -0.995319 1.191423 -11.942948 2.594907 5.417692 60.639255 -4.827372 -5.736056 -14.275864 0.000000 0.000000 0.000000 -1.883677 0.044266 21.277947 -1.440503 0.595828 -4.880741 6.373530 4.732724 14.678307 -5.951367 4.740688 -15.815452 0.000000 0.000000 0.000000 -5.022121 19.855455 -8.352856 -43.334984 27.814416 -14.464743 -23.728286 -22.627825 5.866973 0.000000 0.000000 0.000000 1.470247 -14.782748 -5.468647 47.639628 -22.330177 -13.766412 25.236616 28.699190 6.956177 0.000000 0.000000 0.000000 
-0.174611 0.822298 3.668516 1.856365 -13.588858 1.092906 8.065699 2.605915 -52.651242 -2.557860 0.963985 29.512761 -2.750552 -1.255978 10.735546 0.000000 0.000000 0.000000 -3.155085 0.691545 -7.333884 4.194077 5.018221 61.147894 -5.026151 -7.780978 -11.546323 0.000000 0.000000 0.000000 -2.911725 0.286403 19.852279 -0.973396 0.392783 -3.535027 7.392017 8.230012 15.468724 -6.604137 5.432333 -16.403762 0.000000 0.000000 0.000000 -2.756139 20.666946 -8.108094 -42.112596 29.320151 -14.710018 -20.069618 -19.815493 4.290563 0.000000 0.000000 0.000000 -4.210608 -17.054022 -5.047754 49.947093 -25.553281 -15.476724 26.236706 23.259205 5.911771 0.000000 0.000000 0.000000 
